<svg xmlns="http://www.w3.org/2000/svg" xmlns:xlink="http://www.w3.org/1999/xlink" contentStyleType="text/css" data-diagram-type="CLASS" height="1744px" preserveAspectRatio="none" style="width:535px;height:1744px;background:#FFFFFF;" version="1.1" viewBox="0 0 535 1744" width="535px" zoomAndPan="magnify"><defs/><g><!--class AddToToolBarCommand--><g id="elem_AddToToolBarCommand"><rect codeLine="4" fill="#F1F1F1" height="96.8906" id="AddToToolBarCommand" rx="2.5" ry="2.5" style="stroke:#181818;stroke-width:0.5;" width="255.4141" x="44.5" y="7"/><ellipse cx="83.5658" cy="23" fill="#ADD1B2" rx="11" ry="11" style="stroke:#181818;stroke-width:1;"/><path d="M86.5345,28.6406 Q85.9564,28.9375 85.3158,29.0781 Q84.6751,29.2344 83.972,29.2344 Q81.472,29.2344 80.1439,27.5938 Q78.8314,25.9375 78.8314,22.8125 Q78.8314,19.6875 80.1439,18.0313 Q81.472,16.375 83.972,16.375 Q84.6751,16.375 85.3158,16.5313 Q85.972,16.6875 86.5345,16.9844 L86.5345,19.7031 Q85.9095,19.125 85.3158,18.8594 Q84.722,18.5781 84.097,18.5781 Q82.7533,18.5781 82.0658,19.6563 Q81.3783,20.7188 81.3783,22.8125 Q81.3783,24.9063 82.0658,25.9844 Q82.7533,27.0469 84.097,27.0469 Q84.722,27.0469 85.3158,26.7813 Q85.9095,26.5 86.5345,25.9219 L86.5345,28.6406 Z " fill="#000000"/><text fill="#000000" font-family="sans-serif" font-size="14" lengthAdjust="spacing" textLength="169.9346" x="102.9137" y="27.8467">AddToToolBarCommand</text><line style="stroke:#181818;stroke-width:0.5;" x1="45.5" x2="298.9141" y1="39" y2="39"/><line style="stroke:#181818;stroke-width:0.5;" x1="45.5" x2="298.9141" y1="47" y2="47"/><ellipse cx="55.5" cy="60.6484" fill="#84BE84" rx="3" ry="3" style="stroke:#038048;stroke-width:1;"/><text fill="#000000" font-family="sans-serif" font-size="14" lengthAdjust="spacing" textLength="229.4141" x="64.5" y="63.9951">AddToToolBarCommand(Shape):</text><ellipse cx="55.5" cy="76.9453" fill="#84BE84" rx="3" ry="3" style="stroke:#038048;stroke-width:1;"/><text fill="#000000" font-family="sans-serif" font-size="14" lengthAdjust="spacing" textLength="105.9023" x="64.5" y="80.292">execute(): void</text><ellipse cx="55.5" cy="93.2422" fill="#84BE84" rx="3" ry="3" style="stroke:#038048;stroke-width:1;"/><text fill="#000000" font-family="sans-serif" font-size="14" lengthAdjust="spacing" textLength="84.916" x="64.5" y="96.5889">undo(): void</text></g><!--class BagOfCommands--><g id="elem_BagOfCommands"><rect codeLine="9" fill="#F1F1F1" height="145.7813" id="BagOfCommands" rx="2.5" ry="2.5" style="stroke:#181818;stroke-width:0.5;" width="245.9805" x="49" y="139.5"/><ellipse cx="106.6064" cy="155.5" fill="#ADD1B2" rx="11" ry="11" style="stroke:#181818;stroke-width:1;"/><path d="M109.5752,161.1406 Q108.9971,161.4375 108.3564,161.5781 Q107.7158,161.7344 107.0127,161.7344 Q104.5127,161.7344 103.1846,160.0938 Q101.8721,158.4375 101.8721,155.3125 Q101.8721,152.1875 103.1846,150.5313 Q104.5127,148.875 107.0127,148.875 Q107.7158,148.875 108.3564,149.0313 Q109.0127,149.1875 109.5752,149.4844 L109.5752,152.2031 Q108.9502,151.625 108.3564,151.3594 Q107.7627,151.0781 107.1377,151.0781 Q105.7939,151.0781 105.1064,152.1563 Q104.4189,153.2188 104.4189,155.3125 Q104.4189,157.4063 105.1064,158.4844 Q105.7939,159.5469 107.1377,159.5469 Q107.7627,159.5469 108.3564,159.2813 Q108.9502,159 109.5752,158.4219 L109.5752,161.1406 Z " fill="#000000"/><text fill="#000000" font-family="sans-serif" font-size="14" lengthAdjust="spacing" textLength="122.2676" x="127.1064" y="160.3467">BagOfCommands</text><line style="stroke:#181818;stroke-width:0.5;" x1="50" x2="293.9805" y1="171.5" y2="171.5"/><rect fill="transparent" height="6" style="stroke:#C82930;stroke-width:1;" width="6" x="57" y="182.1484"/><text fill="#000000" font-family="sans-serif" font-size="14" lengthAdjust="spacing" textLength="190.7432" x="69" y="188.4951">instance: BagOfCommands</text><text fill="#000000" font-family="sans-serif" font-size="14" lengthAdjust="spacing" textLength="190.7432" x="69" y="204.792">instance: BagOfCommands</text><line style="stroke:#181818;stroke-width:0.5;" x1="50" x2="293.9805" y1="212.0938" y2="212.0938"/><rect fill="#F24D5C" height="6" style="stroke:#C82930;stroke-width:1;" width="6" x="57" y="222.7422"/><text fill="#000000" font-family="sans-serif" font-size="14" lengthAdjust="spacing" textLength="137.9082" x="69" y="229.0889">BagOfCommands():</text><ellipse cx="60" cy="242.0391" fill="#84BE84" rx="3" ry="3" style="stroke:#038048;stroke-width:1;"/><text fill="#000000" font-family="sans-serif" font-size="14" lengthAdjust="spacing" textLength="219.9805" x="69" y="245.3857">addCommand(Command): void</text><ellipse cx="60" cy="258.3359" fill="#84BE84" rx="3" ry="3" style="stroke:#038048;stroke-width:1;"/><text fill="#000000" font-family="sans-serif" font-size="14" lengthAdjust="spacing" textLength="134.4082" x="69" y="261.6826">executeOne(): void</text><ellipse cx="60" cy="274.6328" fill="#84BE84" rx="3" ry="3" style="stroke:#038048;stroke-width:1;"/><text fill="#000000" font-family="sans-serif" font-size="14" lengthAdjust="spacing" textLength="123.2588" x="69" y="277.9795">executeAll(): void</text></g><!--class CloneToCanvasCommand--><g id="elem_CloneToCanvasCommand"><rect codeLine="17" fill="#F1F1F1" height="96.8906" id="CloneToCanvasCommand" rx="2.5" ry="2.5" style="stroke:#181818;stroke-width:0.5;" width="329.5635" x="7" y="321"/><ellipse cx="77.4443" cy="337" fill="#ADD1B2" rx="11" ry="11" style="stroke:#181818;stroke-width:1;"/><path d="M80.4131,342.6406 Q79.835,342.9375 79.1943,343.0781 Q78.5537,343.2344 77.8506,343.2344 Q75.3506,343.2344 74.0225,341.5938 Q72.71,339.9375 72.71,336.8125 Q72.71,333.6875 74.0225,332.0313 Q75.3506,330.375 77.8506,330.375 Q78.5537,330.375 79.1943,330.5313 Q79.8506,330.6875 80.4131,330.9844 L80.4131,333.7031 Q79.7881,333.125 79.1943,332.8594 Q78.6006,332.5781 77.9756,332.5781 Q76.6318,332.5781 75.9443,333.6563 Q75.2568,334.7188 75.2568,336.8125 Q75.2568,338.9063 75.9443,339.9844 Q76.6318,341.0469 77.9756,341.0469 Q78.6006,341.0469 79.1943,340.7813 Q79.7881,340.5 80.4131,339.9219 L80.4131,342.6406 Z " fill="#000000"/><text fill="#000000" font-family="sans-serif" font-size="14" lengthAdjust="spacing" textLength="180.1748" x="97.9443" y="341.8467">CloneToCanvasCommand</text><line style="stroke:#181818;stroke-width:0.5;" x1="8" x2="335.5635" y1="353" y2="353"/><line style="stroke:#181818;stroke-width:0.5;" x1="8" x2="335.5635" y1="361" y2="361"/><ellipse cx="18" cy="374.6484" fill="#84BE84" rx="3" ry="3" style="stroke:#038048;stroke-width:1;"/><text fill="#000000" font-family="sans-serif" font-size="14" lengthAdjust="spacing" textLength="303.5635" x="27" y="377.9951">CloneToCanvasCommand(Shape, Position):</text><ellipse cx="18" cy="390.9453" fill="#84BE84" rx="3" ry="3" style="stroke:#038048;stroke-width:1;"/><text fill="#000000" font-family="sans-serif" font-size="14" lengthAdjust="spacing" textLength="105.9023" x="27" y="394.292">execute(): void</text><ellipse cx="18" cy="407.2422" fill="#84BE84" rx="3" ry="3" style="stroke:#038048;stroke-width:1;"/><text fill="#000000" font-family="sans-serif" font-size="14" lengthAdjust="spacing" textLength="84.916" x="27" y="410.5889">undo(): void</text></g><!--class Command--><g id="elem_Command"><rect codeLine="22" fill="#F1F1F1" height="88.8594" id="Command" rx="2.5" ry="2.5" style="stroke:#181818;stroke-width:0.5;" width="131.9023" x="397" y="853"/><ellipse cx="424.5763" cy="873.1328" fill="#B4A7E5" rx="11" ry="11" style="stroke:#181818;stroke-width:1;"/><path d="M420.4981,868.8984 L420.4981,866.7422 L427.8888,866.7422 L427.8888,868.8984 L425.42,868.8984 L425.42,876.9766 L427.8888,876.9766 L427.8888,879.1328 L420.4981,879.1328 L420.4981,876.9766 L422.9669,876.9766 L422.9669,868.8984 L420.4981,868.8984 Z " fill="#000000"/><text fill="#000000" font-family="sans-serif" font-size="12" font-style="italic" lengthAdjust="spacing" textLength="68.332" x="443.1825" y="869.1387">&#171;interface&#187;</text><text fill="#000000" font-family="sans-serif" font-size="14" font-style="italic" lengthAdjust="spacing" textLength="71.9551" x="441.371" y="884.9639">Command</text><line style="stroke:#181818;stroke-width:0.5;" x1="398" x2="527.9023" y1="893.2656" y2="893.2656"/><line style="stroke:#181818;stroke-width:0.5;" x1="398" x2="527.9023" y1="901.2656" y2="901.2656"/><ellipse cx="408" cy="914.9141" fill="#84BE84" rx="3" ry="3" style="stroke:#038048;stroke-width:1;"/><text fill="#000000" font-family="sans-serif" font-size="14" lengthAdjust="spacing" textLength="105.9023" x="417" y="918.2607">execute(): void</text><ellipse cx="408" cy="931.2109" fill="#84BE84" rx="3" ry="3" style="stroke:#038048;stroke-width:1;"/><text fill="#000000" font-family="sans-serif" font-size="14" lengthAdjust="spacing" textLength="84.916" x="417" y="934.5576">undo(): void</text></g><!--class DeleteCommand--><g id="elem_DeleteCommand"><rect codeLine="26" fill="#F1F1F1" height="96.8906" id="DeleteCommand" rx="2.5" ry="2.5" style="stroke:#181818;stroke-width:0.5;" width="159.5947" x="92" y="453"/><ellipse cx="111.3383" cy="469" fill="#ADD1B2" rx="11" ry="11" style="stroke:#181818;stroke-width:1;"/><path d="M114.307,474.6406 Q113.7289,474.9375 113.0883,475.0781 Q112.4477,475.2344 111.7445,475.2344 Q109.2445,475.2344 107.9164,473.5938 Q106.6039,471.9375 106.6039,468.8125 Q106.6039,465.6875 107.9164,464.0313 Q109.2445,462.375 111.7445,462.375 Q112.4477,462.375 113.0883,462.5313 Q113.7445,462.6875 114.307,462.9844 L114.307,465.7031 Q113.682,465.125 113.0883,464.8594 Q112.4945,464.5781 111.8695,464.5781 Q110.5258,464.5781 109.8383,465.6563 Q109.1508,466.7188 109.1508,468.8125 Q109.1508,470.9063 109.8383,471.9844 Q110.5258,473.0469 111.8695,473.0469 Q112.4945,473.0469 113.0883,472.7813 Q113.682,472.5 114.307,471.9219 L114.307,474.6406 Z " fill="#000000"/><text fill="#000000" font-family="sans-serif" font-size="14" lengthAdjust="spacing" textLength="117.9541" x="126.3023" y="473.8467">DeleteCommand</text><line style="stroke:#181818;stroke-width:0.5;" x1="93" x2="250.5947" y1="485" y2="485"/><line style="stroke:#181818;stroke-width:0.5;" x1="93" x2="250.5947" y1="493" y2="493"/><ellipse cx="103" cy="506.6484" fill="#84BE84" rx="3" ry="3" style="stroke:#038048;stroke-width:1;"/><text fill="#000000" font-family="sans-serif" font-size="14" lengthAdjust="spacing" textLength="133.5947" x="112" y="509.9951">DeleteCommand():</text><ellipse cx="103" cy="522.9453" fill="#84BE84" rx="3" ry="3" style="stroke:#038048;stroke-width:1;"/><text fill="#000000" font-family="sans-serif" font-size="14" lengthAdjust="spacing" textLength="105.9023" x="112" y="526.292">execute(): void</text><ellipse cx="103" cy="539.2422" fill="#84BE84" rx="3" ry="3" style="stroke:#038048;stroke-width:1;"/><text fill="#000000" font-family="sans-serif" font-size="14" lengthAdjust="spacing" textLength="84.916" x="112" y="542.5889">undo(): void</text></g><!--class DuplicateCommand--><g id="elem_DuplicateCommand"><rect codeLine="31" fill="#F1F1F1" height="96.8906" id="DuplicateCommand" rx="2.5" ry="2.5" style="stroke:#181818;stroke-width:0.5;" width="180.2939" x="82" y="585"/><ellipse cx="101.3383" cy="601" fill="#ADD1B2" rx="11" ry="11" style="stroke:#181818;stroke-width:1;"/><path d="M104.307,606.6406 Q103.7289,606.9375 103.0883,607.0781 Q102.4477,607.2344 101.7445,607.2344 Q99.2445,607.2344 97.9164,605.5938 Q96.6039,603.9375 96.6039,600.8125 Q96.6039,597.6875 97.9164,596.0313 Q99.2445,594.375 101.7445,594.375 Q102.4477,594.375 103.0883,594.5313 Q103.7445,594.6875 104.307,594.9844 L104.307,597.7031 Q103.682,597.125 103.0883,596.8594 Q102.4945,596.5781 101.8695,596.5781 Q100.5258,596.5781 99.8383,597.6563 Q99.1508,598.7188 99.1508,600.8125 Q99.1508,602.9063 99.8383,603.9844 Q100.5258,605.0469 101.8695,605.0469 Q102.4945,605.0469 103.0883,604.7813 Q103.682,604.5 104.307,603.9219 L104.307,606.6406 Z " fill="#000000"/><text fill="#000000" font-family="sans-serif" font-size="14" lengthAdjust="spacing" textLength="138.6533" x="116.3023" y="605.8467">DuplicateCommand</text><line style="stroke:#181818;stroke-width:0.5;" x1="83" x2="261.2939" y1="617" y2="617"/><line style="stroke:#181818;stroke-width:0.5;" x1="83" x2="261.2939" y1="625" y2="625"/><ellipse cx="93" cy="638.6484" fill="#84BE84" rx="3" ry="3" style="stroke:#038048;stroke-width:1;"/><text fill="#000000" font-family="sans-serif" font-size="14" lengthAdjust="spacing" textLength="154.2939" x="102" y="641.9951">DuplicateCommand():</text><ellipse cx="93" cy="654.9453" fill="#84BE84" rx="3" ry="3" style="stroke:#038048;stroke-width:1;"/><text fill="#000000" font-family="sans-serif" font-size="14" lengthAdjust="spacing" textLength="105.9023" x="102" y="658.292">execute(): void</text><ellipse cx="93" cy="671.2422" fill="#84BE84" rx="3" ry="3" style="stroke:#038048;stroke-width:1;"/><text fill="#000000" font-family="sans-serif" font-size="14" lengthAdjust="spacing" textLength="84.916" x="102" y="674.5889">undo(): void</text></g><!--class EditShapeCommand--><g id="elem_EditShapeCommand"><rect codeLine="36" fill="#F1F1F1" height="96.8906" id="EditShapeCommand" rx="2.5" ry="2.5" style="stroke:#181818;stroke-width:0.5;" width="287.7549" x="28" y="717"/><ellipse cx="96.1748" cy="733" fill="#ADD1B2" rx="11" ry="11" style="stroke:#181818;stroke-width:1;"/><path d="M99.1436,738.6406 Q98.5654,738.9375 97.9248,739.0781 Q97.2842,739.2344 96.5811,739.2344 Q94.0811,739.2344 92.7529,737.5938 Q91.4404,735.9375 91.4404,732.8125 Q91.4404,729.6875 92.7529,728.0313 Q94.0811,726.375 96.5811,726.375 Q97.2842,726.375 97.9248,726.5313 Q98.5811,726.6875 99.1436,726.9844 L99.1436,729.7031 Q98.5186,729.125 97.9248,728.8594 Q97.3311,728.5781 96.7061,728.5781 Q95.3623,728.5781 94.6748,729.6563 Q93.9873,730.7188 93.9873,732.8125 Q93.9873,734.9063 94.6748,735.9844 Q95.3623,737.0469 96.7061,737.0469 Q97.3311,737.0469 97.9248,736.7813 Q98.5186,736.5 99.1436,735.9219 L99.1436,738.6406 Z " fill="#000000"/><text fill="#000000" font-family="sans-serif" font-size="14" lengthAdjust="spacing" textLength="142.9053" x="116.6748" y="737.8467">EditShapeCommand</text><line style="stroke:#181818;stroke-width:0.5;" x1="29" x2="314.7549" y1="749" y2="749"/><line style="stroke:#181818;stroke-width:0.5;" x1="29" x2="314.7549" y1="757" y2="757"/><ellipse cx="39" cy="770.6484" fill="#84BE84" rx="3" ry="3" style="stroke:#038048;stroke-width:1;"/><text fill="#000000" font-family="sans-serif" font-size="14" lengthAdjust="spacing" textLength="261.7549" x="48" y="773.9951">EditShapeCommand(Shape, Render):</text><ellipse cx="39" cy="786.9453" fill="#84BE84" rx="3" ry="3" style="stroke:#038048;stroke-width:1;"/><text fill="#000000" font-family="sans-serif" font-size="14" lengthAdjust="spacing" textLength="84.916" x="48" y="790.292">undo(): void</text><ellipse cx="39" cy="803.2422" fill="#84BE84" rx="3" ry="3" style="stroke:#038048;stroke-width:1;"/><text fill="#000000" font-family="sans-serif" font-size="14" lengthAdjust="spacing" textLength="105.9023" x="48" y="806.5889">execute(): void</text></g><!--class LoadCommand--><g id="elem_LoadCommand"><rect codeLine="41" fill="#F1F1F1" height="96.8906" id="LoadCommand" rx="2.5" ry="2.5" style="stroke:#181818;stroke-width:0.5;" width="147.4268" x="98.5" y="849"/><ellipse cx="117.8383" cy="865" fill="#ADD1B2" rx="11" ry="11" style="stroke:#181818;stroke-width:1;"/><path d="M120.807,870.6406 Q120.2289,870.9375 119.5883,871.0781 Q118.9477,871.2344 118.2445,871.2344 Q115.7445,871.2344 114.4164,869.5938 Q113.1039,867.9375 113.1039,864.8125 Q113.1039,861.6875 114.4164,860.0313 Q115.7445,858.375 118.2445,858.375 Q118.9477,858.375 119.5883,858.5313 Q120.2445,858.6875 120.807,858.9844 L120.807,861.7031 Q120.182,861.125 119.5883,860.8594 Q118.9945,860.5781 118.3695,860.5781 Q117.0258,860.5781 116.3383,861.6563 Q115.6508,862.7188 115.6508,864.8125 Q115.6508,866.9063 116.3383,867.9844 Q117.0258,869.0469 118.3695,869.0469 Q118.9945,869.0469 119.5883,868.7813 Q120.182,868.5 120.807,867.9219 L120.807,870.6406 Z " fill="#000000"/><text fill="#000000" font-family="sans-serif" font-size="14" lengthAdjust="spacing" textLength="105.7861" x="132.8023" y="869.8467">LoadCommand</text><line style="stroke:#181818;stroke-width:0.5;" x1="99.5" x2="244.9268" y1="881" y2="881"/><line style="stroke:#181818;stroke-width:0.5;" x1="99.5" x2="244.9268" y1="889" y2="889"/><ellipse cx="109.5" cy="902.6484" fill="#84BE84" rx="3" ry="3" style="stroke:#038048;stroke-width:1;"/><text fill="#000000" font-family="sans-serif" font-size="14" lengthAdjust="spacing" textLength="121.4268" x="118.5" y="905.9951">LoadCommand():</text><ellipse cx="109.5" cy="918.9453" fill="#84BE84" rx="3" ry="3" style="stroke:#038048;stroke-width:1;"/><text fill="#000000" font-family="sans-serif" font-size="14" lengthAdjust="spacing" textLength="84.916" x="118.5" y="922.292">undo(): void</text><ellipse cx="109.5" cy="935.2422" fill="#84BE84" rx="3" ry="3" style="stroke:#038048;stroke-width:1;"/><text fill="#000000" font-family="sans-serif" font-size="14" lengthAdjust="spacing" textLength="105.9023" x="118.5" y="938.5889">execute(): void</text></g><!--class MoveCommand--><g id="elem_MoveCommand"><rect codeLine="46" fill="#F1F1F1" height="96.8906" id="MoveCommand" rx="2.5" ry="2.5" style="stroke:#181818;stroke-width:0.5;" width="258.8867" x="42.5" y="981"/><ellipse cx="112.9443" cy="997" fill="#ADD1B2" rx="11" ry="11" style="stroke:#181818;stroke-width:1;"/><path d="M115.9131,1002.6406 Q115.335,1002.9375 114.6943,1003.0781 Q114.0537,1003.2344 113.3506,1003.2344 Q110.8506,1003.2344 109.5225,1001.5938 Q108.21,999.9375 108.21,996.8125 Q108.21,993.6875 109.5225,992.0313 Q110.8506,990.375 113.3506,990.375 Q114.0537,990.375 114.6943,990.5313 Q115.3506,990.6875 115.9131,990.9844 L115.9131,993.7031 Q115.2881,993.125 114.6943,992.8594 Q114.1006,992.5781 113.4756,992.5781 Q112.1318,992.5781 111.4443,993.6563 Q110.7568,994.7188 110.7568,996.8125 Q110.7568,998.9063 111.4443,999.9844 Q112.1318,1001.0469 113.4756,1001.0469 Q114.1006,1001.0469 114.6943,1000.7813 Q115.2881,1000.5 115.9131,999.9219 L115.9131,1002.6406 Z " fill="#000000"/><text fill="#000000" font-family="sans-serif" font-size="14" lengthAdjust="spacing" textLength="109.498" x="133.4443" y="1001.8467">MoveCommand</text><line style="stroke:#181818;stroke-width:0.5;" x1="43.5" x2="300.3867" y1="1013" y2="1013"/><line style="stroke:#181818;stroke-width:0.5;" x1="43.5" x2="300.3867" y1="1021" y2="1021"/><ellipse cx="53.5" cy="1034.6484" fill="#84BE84" rx="3" ry="3" style="stroke:#038048;stroke-width:1;"/><text fill="#000000" font-family="sans-serif" font-size="14" lengthAdjust="spacing" textLength="232.8867" x="62.5" y="1037.9951">MoveCommand(Shape, Position):</text><ellipse cx="53.5" cy="1050.9453" fill="#84BE84" rx="3" ry="3" style="stroke:#038048;stroke-width:1;"/><text fill="#000000" font-family="sans-serif" font-size="14" lengthAdjust="spacing" textLength="84.916" x="62.5" y="1054.292">undo(): void</text><ellipse cx="53.5" cy="1067.2422" fill="#84BE84" rx="3" ry="3" style="stroke:#038048;stroke-width:1;"/><text fill="#000000" font-family="sans-serif" font-size="14" lengthAdjust="spacing" textLength="105.9023" x="62.5" y="1070.5889">execute(): void</text></g><!--class RedoCommand--><g id="elem_RedoCommand"><rect codeLine="51" fill="#F1F1F1" height="96.8906" id="RedoCommand" rx="2.5" ry="2.5" style="stroke:#181818;stroke-width:0.5;" width="149.3887" x="97.5" y="1113"/><ellipse cx="116.8383" cy="1129" fill="#ADD1B2" rx="11" ry="11" style="stroke:#181818;stroke-width:1;"/><path d="M119.807,1134.6406 Q119.2289,1134.9375 118.5883,1135.0781 Q117.9477,1135.2344 117.2445,1135.2344 Q114.7445,1135.2344 113.4164,1133.5938 Q112.1039,1131.9375 112.1039,1128.8125 Q112.1039,1125.6875 113.4164,1124.0313 Q114.7445,1122.375 117.2445,1122.375 Q117.9477,1122.375 118.5883,1122.5313 Q119.2445,1122.6875 119.807,1122.9844 L119.807,1125.7031 Q119.182,1125.125 118.5883,1124.8594 Q117.9945,1124.5781 117.3695,1124.5781 Q116.0258,1124.5781 115.3383,1125.6563 Q114.6508,1126.7188 114.6508,1128.8125 Q114.6508,1130.9063 115.3383,1131.9844 Q116.0258,1133.0469 117.3695,1133.0469 Q117.9945,1133.0469 118.5883,1132.7813 Q119.182,1132.5 119.807,1131.9219 L119.807,1134.6406 Z " fill="#000000"/><text fill="#000000" font-family="sans-serif" font-size="14" lengthAdjust="spacing" textLength="107.748" x="131.8023" y="1133.8467">RedoCommand</text><line style="stroke:#181818;stroke-width:0.5;" x1="98.5" x2="245.8887" y1="1145" y2="1145"/><line style="stroke:#181818;stroke-width:0.5;" x1="98.5" x2="245.8887" y1="1153" y2="1153"/><ellipse cx="108.5" cy="1166.6484" fill="#84BE84" rx="3" ry="3" style="stroke:#038048;stroke-width:1;"/><text fill="#000000" font-family="sans-serif" font-size="14" lengthAdjust="spacing" textLength="123.3887" x="117.5" y="1169.9951">RedoCommand():</text><ellipse cx="108.5" cy="1182.9453" fill="#84BE84" rx="3" ry="3" style="stroke:#038048;stroke-width:1;"/><text fill="#000000" font-family="sans-serif" font-size="14" lengthAdjust="spacing" textLength="84.916" x="117.5" y="1186.292">undo(): void</text><ellipse cx="108.5" cy="1199.2422" fill="#84BE84" rx="3" ry="3" style="stroke:#038048;stroke-width:1;"/><text fill="#000000" font-family="sans-serif" font-size="14" lengthAdjust="spacing" textLength="105.9023" x="117.5" y="1202.5889">execute(): void</text></g><!--class ResizeCommand--><g id="elem_ResizeCommand"><rect codeLine="56" fill="#F1F1F1" height="96.8906" id="ResizeCommand" rx="2.5" ry="2.5" style="stroke:#181818;stroke-width:0.5;" width="243.2734" x="50.5" y="1245"/><ellipse cx="109.166" cy="1261" fill="#ADD1B2" rx="11" ry="11" style="stroke:#181818;stroke-width:1;"/><path d="M112.1348,1266.6406 Q111.5566,1266.9375 110.916,1267.0781 Q110.2754,1267.2344 109.5723,1267.2344 Q107.0723,1267.2344 105.7441,1265.5938 Q104.4316,1263.9375 104.4316,1260.8125 Q104.4316,1257.6875 105.7441,1256.0313 Q107.0723,1254.375 109.5723,1254.375 Q110.2754,1254.375 110.916,1254.5313 Q111.5723,1254.6875 112.1348,1254.9844 L112.1348,1257.7031 Q111.5098,1257.125 110.916,1256.8594 Q110.3223,1256.5781 109.6973,1256.5781 Q108.3535,1256.5781 107.666,1257.6563 Q106.9785,1258.7188 106.9785,1260.8125 Q106.9785,1262.9063 107.666,1263.9844 Q108.3535,1265.0469 109.6973,1265.0469 Q110.3223,1265.0469 110.916,1264.7813 Q111.5098,1264.5 112.1348,1263.9219 L112.1348,1266.6406 Z " fill="#000000"/><text fill="#000000" font-family="sans-serif" font-size="14" lengthAdjust="spacing" textLength="117.4414" x="129.666" y="1265.8467">ResizeCommand</text><line style="stroke:#181818;stroke-width:0.5;" x1="51.5" x2="292.7734" y1="1277" y2="1277"/><line style="stroke:#181818;stroke-width:0.5;" x1="51.5" x2="292.7734" y1="1285" y2="1285"/><ellipse cx="61.5" cy="1298.6484" fill="#84BE84" rx="3" ry="3" style="stroke:#038048;stroke-width:1;"/><text fill="#000000" font-family="sans-serif" font-size="14" lengthAdjust="spacing" textLength="217.2734" x="70.5" y="1301.9951">ResizeCommand(Shape, float):</text><ellipse cx="61.5" cy="1314.9453" fill="#84BE84" rx="3" ry="3" style="stroke:#038048;stroke-width:1;"/><text fill="#000000" font-family="sans-serif" font-size="14" lengthAdjust="spacing" textLength="105.9023" x="70.5" y="1318.292">execute(): void</text><ellipse cx="61.5" cy="1331.2422" fill="#84BE84" rx="3" ry="3" style="stroke:#038048;stroke-width:1;"/><text fill="#000000" font-family="sans-serif" font-size="14" lengthAdjust="spacing" textLength="84.916" x="70.5" y="1334.5889">undo(): void</text></g><!--class SaveCommand--><g id="elem_SaveCommand"><rect codeLine="61" fill="#F1F1F1" height="96.8906" id="SaveCommand" rx="2.5" ry="2.5" style="stroke:#181818;stroke-width:0.5;" width="147.96" x="98" y="1377"/><ellipse cx="117.3383" cy="1393" fill="#ADD1B2" rx="11" ry="11" style="stroke:#181818;stroke-width:1;"/><path d="M120.307,1398.6406 Q119.7289,1398.9375 119.0883,1399.0781 Q118.4477,1399.2344 117.7445,1399.2344 Q115.2445,1399.2344 113.9164,1397.5938 Q112.6039,1395.9375 112.6039,1392.8125 Q112.6039,1389.6875 113.9164,1388.0313 Q115.2445,1386.375 117.7445,1386.375 Q118.4477,1386.375 119.0883,1386.5313 Q119.7445,1386.6875 120.307,1386.9844 L120.307,1389.7031 Q119.682,1389.125 119.0883,1388.8594 Q118.4945,1388.5781 117.8695,1388.5781 Q116.5258,1388.5781 115.8383,1389.6563 Q115.1508,1390.7188 115.1508,1392.8125 Q115.1508,1394.9063 115.8383,1395.9844 Q116.5258,1397.0469 117.8695,1397.0469 Q118.4945,1397.0469 119.0883,1396.7813 Q119.682,1396.5 120.307,1395.9219 L120.307,1398.6406 Z " fill="#000000"/><text fill="#000000" font-family="sans-serif" font-size="14" lengthAdjust="spacing" textLength="106.3193" x="132.3023" y="1397.8467">SaveCommand</text><line style="stroke:#181818;stroke-width:0.5;" x1="99" x2="244.96" y1="1409" y2="1409"/><line style="stroke:#181818;stroke-width:0.5;" x1="99" x2="244.96" y1="1417" y2="1417"/><ellipse cx="109" cy="1430.6484" fill="#84BE84" rx="3" ry="3" style="stroke:#038048;stroke-width:1;"/><text fill="#000000" font-family="sans-serif" font-size="14" lengthAdjust="spacing" textLength="121.96" x="118" y="1433.9951">SaveCommand():</text><ellipse cx="109" cy="1446.9453" fill="#84BE84" rx="3" ry="3" style="stroke:#038048;stroke-width:1;"/><text fill="#000000" font-family="sans-serif" font-size="14" lengthAdjust="spacing" textLength="84.916" x="118" y="1450.292">undo(): void</text><ellipse cx="109" cy="1463.2422" fill="#84BE84" rx="3" ry="3" style="stroke:#038048;stroke-width:1;"/><text fill="#000000" font-family="sans-serif" font-size="14" lengthAdjust="spacing" textLength="105.9023" x="118" y="1466.5889">execute(): void</text></g><!--class UndoCommand--><g id="elem_UndoCommand"><rect codeLine="66" fill="#F1F1F1" height="96.8906" id="UndoCommand" rx="2.5" ry="2.5" style="stroke:#181818;stroke-width:0.5;" width="150.168" x="97" y="1509"/><ellipse cx="116.3383" cy="1525" fill="#ADD1B2" rx="11" ry="11" style="stroke:#181818;stroke-width:1;"/><path d="M119.307,1530.6406 Q118.7289,1530.9375 118.0883,1531.0781 Q117.4477,1531.2344 116.7445,1531.2344 Q114.2445,1531.2344 112.9164,1529.5938 Q111.6039,1527.9375 111.6039,1524.8125 Q111.6039,1521.6875 112.9164,1520.0313 Q114.2445,1518.375 116.7445,1518.375 Q117.4477,1518.375 118.0883,1518.5313 Q118.7445,1518.6875 119.307,1518.9844 L119.307,1521.7031 Q118.682,1521.125 118.0883,1520.8594 Q117.4945,1520.5781 116.8695,1520.5781 Q115.5258,1520.5781 114.8383,1521.6563 Q114.1508,1522.7188 114.1508,1524.8125 Q114.1508,1526.9063 114.8383,1527.9844 Q115.5258,1529.0469 116.8695,1529.0469 Q117.4945,1529.0469 118.0883,1528.7813 Q118.682,1528.5 119.307,1527.9219 L119.307,1530.6406 Z " fill="#000000"/><text fill="#000000" font-family="sans-serif" font-size="14" lengthAdjust="spacing" textLength="108.5273" x="131.3023" y="1529.8467">UndoCommand</text><line style="stroke:#181818;stroke-width:0.5;" x1="98" x2="246.168" y1="1541" y2="1541"/><line style="stroke:#181818;stroke-width:0.5;" x1="98" x2="246.168" y1="1549" y2="1549"/><ellipse cx="108" cy="1562.6484" fill="#84BE84" rx="3" ry="3" style="stroke:#038048;stroke-width:1;"/><text fill="#000000" font-family="sans-serif" font-size="14" lengthAdjust="spacing" textLength="124.168" x="117" y="1565.9951">UndoCommand():</text><ellipse cx="108" cy="1578.9453" fill="#84BE84" rx="3" ry="3" style="stroke:#038048;stroke-width:1;"/><text fill="#000000" font-family="sans-serif" font-size="14" lengthAdjust="spacing" textLength="84.916" x="117" y="1582.292">undo(): void</text><ellipse cx="108" cy="1595.2422" fill="#84BE84" rx="3" ry="3" style="stroke:#038048;stroke-width:1;"/><text fill="#000000" font-family="sans-serif" font-size="14" lengthAdjust="spacing" textLength="105.9023" x="117" y="1598.5889">execute(): void</text></g><!--class UngroupCommand--><g id="elem_UngroupCommand"><rect codeLine="71" fill="#F1F1F1" height="96.8906" id="UngroupCommand" rx="2.5" ry="2.5" style="stroke:#181818;stroke-width:0.5;" width="216.6133" x="63.5" y="1641"/><ellipse cx="102.1566" cy="1657" fill="#ADD1B2" rx="11" ry="11" style="stroke:#181818;stroke-width:1;"/><path d="M105.1254,1662.6406 Q104.5473,1662.9375 103.9066,1663.0781 Q103.266,1663.2344 102.5629,1663.2344 Q100.0629,1663.2344 98.7348,1661.5938 Q97.4223,1659.9375 97.4223,1656.8125 Q97.4223,1653.6875 98.7348,1652.0313 Q100.0629,1650.375 102.5629,1650.375 Q103.266,1650.375 103.9066,1650.5313 Q104.5629,1650.6875 105.1254,1650.9844 L105.1254,1653.7031 Q104.5004,1653.125 103.9066,1652.8594 Q103.3129,1652.5781 102.6879,1652.5781 Q101.3441,1652.5781 100.6566,1653.6563 Q99.9691,1654.7188 99.9691,1656.8125 Q99.9691,1658.9063 100.6566,1659.9844 Q101.3441,1661.0469 102.6879,1661.0469 Q103.3129,1661.0469 103.9066,1660.7813 Q104.5004,1660.5 105.1254,1659.9219 L105.1254,1662.6406 Z " fill="#000000"/><text fill="#000000" font-family="sans-serif" font-size="14" lengthAdjust="spacing" textLength="132.043" x="121.4137" y="1661.8467">UngroupCommand</text><line style="stroke:#181818;stroke-width:0.5;" x1="64.5" x2="279.1133" y1="1673" y2="1673"/><line style="stroke:#181818;stroke-width:0.5;" x1="64.5" x2="279.1133" y1="1681" y2="1681"/><ellipse cx="74.5" cy="1694.6484" fill="#84BE84" rx="3" ry="3" style="stroke:#038048;stroke-width:1;"/><text fill="#000000" font-family="sans-serif" font-size="14" lengthAdjust="spacing" textLength="190.6133" x="83.5" y="1697.9951">UngroupCommand(Group):</text><ellipse cx="74.5" cy="1710.9453" fill="#84BE84" rx="3" ry="3" style="stroke:#038048;stroke-width:1;"/><text fill="#000000" font-family="sans-serif" font-size="14" lengthAdjust="spacing" textLength="105.9023" x="83.5" y="1714.292">execute(): void</text><ellipse cx="74.5" cy="1727.2422" fill="#84BE84" rx="3" ry="3" style="stroke:#038048;stroke-width:1;"/><text fill="#000000" font-family="sans-serif" font-size="14" lengthAdjust="spacing" textLength="84.916" x="83.5" y="1730.5889">undo(): void</text></g><!--link AddToToolBarCommand to Command--><g id="link_AddToToolBarCommand_Command"><path codeLine="77" d="M299.97,55.5 C393.12,55.5 503,55.5 503,55.5 C503,55.5 503,660.75 503,834.82 " fill="transparent" id="AddToToolBarCommand-to-Command" style="stroke:#008200;stroke-width:1;stroke-dasharray:7.0,7.0;"/><polygon fill="transparent" points="503,852.82,509,834.82,497,834.82,503,852.82" style="stroke:#008200;stroke-width:1;"/></g><!--link BagOfCommands to Command--><g id="link_BagOfCommands_Command"><path codeLine="78" d="M307.18,212.5 C391.82,212.5 477,212.5 477,212.5 C477,212.5 477,694.73 477,846.82 " fill="transparent" id="BagOfCommands-Command" style="stroke:#595959;stroke-width:1;"/><polygon fill="#595959" points="295.18,212.5,301.18,216.5,307.18,212.5,301.18,208.5,295.18,212.5" style="stroke:#595959;stroke-width:1;"/><polygon fill="#595959" points="477,852.82,481,843.82,477,847.82,473,843.82,477,852.82" style="stroke:#595959;stroke-width:1;"/><text fill="#000000" font-family="sans-serif" font-size="13" lengthAdjust="spacing" textLength="8.271" x="302.9389" y="225.0346">1</text><text fill="#000000" font-family="sans-serif" font-size="13" lengthAdjust="spacing" textLength="71.6587" x="403.1618" y="826.8947">commands</text><text fill="#000000" font-family="sans-serif" font-size="13" lengthAdjust="spacing" textLength="6.5" x="435.7411" y="842.0275">*</text></g><!--link CloneToCanvasCommand to Command--><g id="link_CloneToCanvasCommand_Command"><path codeLine="79" d="M327,418.02 C327,543.83 327,870.8 327,870.8 C327,870.8 344.34,870.8 378.99,870.8 " fill="transparent" id="CloneToCanvasCommand-to-Command" style="stroke:#008200;stroke-width:1;stroke-dasharray:7.0,7.0;"/><polygon fill="transparent" points="396.99,870.8,378.99,864.8,378.99,876.8,396.99,870.8" style="stroke:#008200;stroke-width:1;"/></g><!--link DeleteCommand to Command--><g id="link_DeleteCommand_Command"><path codeLine="80" d="M252.04,501.5 C334.16,501.5 450,501.5 450,501.5 C450,501.5 450,731.28 450,834.84 " fill="transparent" id="DeleteCommand-to-Command" style="stroke:#008200;stroke-width:1;stroke-dasharray:7.0,7.0;"/><polygon fill="transparent" points="450,852.84,456,834.84,444,834.84,450,852.84" style="stroke:#008200;stroke-width:1;"/></g><!--link DuplicateCommand to Command--><g id="link_DuplicateCommand_Command"><path codeLine="81" d="M262.27,633.5 C334.57,633.5 424,633.5 424,633.5 C424,633.5 424,759.4 424,834.72 " fill="transparent" id="DuplicateCommand-to-Command" style="stroke:#008200;stroke-width:1;stroke-dasharray:7.0,7.0;"/><polygon fill="transparent" points="424,852.72,430,834.72,418,834.72,424,852.72" style="stroke:#008200;stroke-width:1;"/></g><!--link EditShapeCommand to Command--><g id="link_EditShapeCommand_Command"><path codeLine="82" d="M309,814.15 C309,848.56 309,888.6 309,888.6 C309,888.6 337.06,888.6 378.8,888.6 " fill="transparent" id="EditShapeCommand-to-Command" style="stroke:#008200;stroke-width:1;stroke-dasharray:7.0,7.0;"/><polygon fill="transparent" points="396.8,888.6,378.8,882.6,378.8,894.6,396.8,888.6" style="stroke:#008200;stroke-width:1;"/></g><!--link LoadCommand to Command--><g id="link_LoadCommand_Command"><path codeLine="83" d="M245.81,906.4 C292.28,906.4 333.76,906.4 378.73,906.4 " fill="transparent" id="LoadCommand-to-Command" style="stroke:#008200;stroke-width:1;stroke-dasharray:7.0,7.0;"/><polygon fill="transparent" points="396.73,906.4,378.73,900.4,378.73,912.4,396.73,906.4" style="stroke:#008200;stroke-width:1;"/></g><!--link MoveCommand to Command--><g id="link_MoveCommand_Command"><path codeLine="84" d="M274,980.86 C274,953.27 274,924.2 274,924.2 C274,924.2 324.39,924.2 378.9,924.2 " fill="transparent" id="MoveCommand-to-Command" style="stroke:#008200;stroke-width:1;stroke-dasharray:7.0,7.0;"/><polygon fill="transparent" points="396.9,924.2,378.9,918.2,378.9,930.2,396.9,924.2" style="stroke:#008200;stroke-width:1;"/></g><!--link RedoCommand to Command--><g id="link_RedoCommand_Command"><path codeLine="85" d="M246.78,1161.5 C319.48,1161.5 419,1161.5 419,1161.5 C419,1161.5 419,1035.6 419,960.28 " fill="transparent" id="RedoCommand-to-Command" style="stroke:#008200;stroke-width:1;stroke-dasharray:7.0,7.0;"/><polygon fill="transparent" points="419,942.28,413,960.28,425,960.28,419,942.28" style="stroke:#008200;stroke-width:1;"/></g><!--link ResizeCommand to Command--><g id="link_ResizeCommand_Command"><path codeLine="86" d="M293.51,1293.5 C364.8,1293.5 441,1293.5 441,1293.5 C441,1293.5 441,1063.72 441,960.16 " fill="transparent" id="ResizeCommand-to-Command" style="stroke:#008200;stroke-width:1;stroke-dasharray:7.0,7.0;"/><polygon fill="transparent" points="441,942.16,435,960.16,447,960.16,441,942.16" style="stroke:#008200;stroke-width:1;"/></g><!--link SaveCommand to Command--><g id="link_SaveCommand_Command"><path codeLine="87" d="M246.18,1425.5 C332.4,1425.5 463,1425.5 463,1425.5 C463,1425.5 463,1087.36 463,960.06 " fill="transparent" id="SaveCommand-to-Command" style="stroke:#008200;stroke-width:1;stroke-dasharray:7.0,7.0;"/><polygon fill="transparent" points="463,942.06,457,960.06,469,960.06,463,942.06" style="stroke:#008200;stroke-width:1;"/></g><!--link UndoCommand to Command--><g id="link_UndoCommand_Command"><path codeLine="88" d="M247.37,1557.5 C339.99,1557.5 485,1557.5 485,1557.5 C485,1557.5 485,1108.35 485,960.09 " fill="transparent" id="UndoCommand-to-Command" style="stroke:#008200;stroke-width:1;stroke-dasharray:7.0,7.0;"/><polygon fill="transparent" points="485,942.09,479,960.09,491,960.09,485,942.09" style="stroke:#008200;stroke-width:1;"/></g><!--link UngroupCommand to Command--><g id="link_UngroupCommand_Command"><path codeLine="89" d="M280.63,1689.5 C378.79,1689.5 508,1689.5 508,1689.5 C508,1689.5 508,1127.23 508,960.06 " fill="transparent" id="UngroupCommand-to-Command" style="stroke:#008200;stroke-width:1;stroke-dasharray:7.0,7.0;"/><polygon fill="transparent" points="508,942.06,502,960.06,514,960.06,508,942.06" style="stroke:#008200;stroke-width:1;"/></g><!--SRC=[dPHRIyD048NVyok6-XArXIe8MgIWhVYYLBG-UO4XEsqNjpiXkorUyB_RfedknXIwsJo4d0tVEJl9ZAA91SkGoUdCWf0P9LQoZioRr2bcE0SbDTcFb80pE-CeIXGQ0nT2Z7dCh2un6_1yZbh0LmHmMBSJFymmfVqUv2_GEoKBI_7gUSbIvDf22_uLlWkFIvoE9WN2vFIEhyKRP0UaDXPrGZr_FqUZ46MCukuQ5s56sizJo1TAEV9McpBmGB6cCGzGBz7uLQdRsfIb3NTivBhe0GMIsb8smOIWj3a_Xp-ntoziTwxra1HPyZDxMXpy-OQBLCa4_r4hSZZuIaYRbyu7L-MolFUa1MMbYqUiiorTRXY5R-0eSJ3kbfULl8woxK_OcNvFWdsweyGDS4P-KXNeQ6NWYMAqmH_m0QkrS9Jmj8-wUdX7QOARPhn8gqHNZA_N3m7dZkhcvMfoFUrrkwV7tMvRe9cHUEcy0lnjEoloXs6nMaSjE5X1JixMLpjLAFLBfm-jf7ZnMH-qjW1hXrL88dzab2i4K1qGeO1_Wo0KuFOuD3c2szMD06xZDWIuhTe0u3PZemHk-pK4U0st0-07]--></g></svg>