<svg xmlns="http://www.w3.org/2000/svg" xmlns:xlink="http://www.w3.org/1999/xlink" contentStyleType="text/css" data-diagram-type="CLASS" height="471px" preserveAspectRatio="none" style="width:2011px;height:471px;background:#FFFFFF;" version="1.1" viewBox="0 0 2011 471" width="2011px" zoomAndPan="magnify"><defs/><g><!--class AwtRenderer--><g id="elem_AwtRenderer"><rect codeLine="4" fill="#F1F1F1" height="259.8594" id="AwtRenderer" rx="2.5" ry="2.5" style="stroke:#181818;stroke-width:0.5;" width="699.9893" x="371.5" y="7"/><ellipse cx="671.5669" cy="23" fill="#ADD1B2" rx="11" ry="11" style="stroke:#181818;stroke-width:1;"/><path d="M674.5356,28.6406 Q673.9575,28.9375 673.3169,29.0781 Q672.6763,29.2344 671.9731,29.2344 Q669.4731,29.2344 668.145,27.5938 Q666.8325,25.9375 666.8325,22.8125 Q666.8325,19.6875 668.145,18.0313 Q669.4731,16.375 671.9731,16.375 Q672.6763,16.375 673.3169,16.5313 Q673.9731,16.6875 674.5356,16.9844 L674.5356,19.7031 Q673.9106,19.125 673.3169,18.8594 Q672.7231,18.5781 672.0981,18.5781 Q670.7544,18.5781 670.0669,19.6563 Q669.3794,20.7188 669.3794,22.8125 Q669.3794,24.9063 670.0669,25.9844 Q670.7544,27.0469 672.0981,27.0469 Q672.7231,27.0469 673.3169,26.7813 Q673.9106,26.5 674.5356,25.9219 L674.5356,28.6406 Z " fill="#000000"/><text fill="#000000" font-family="sans-serif" font-size="14" lengthAdjust="spacing" textLength="91.3555" x="692.0669" y="27.8467">AwtRenderer</text><line style="stroke:#181818;stroke-width:0.5;" x1="372.5" x2="1070.4893" y1="39" y2="39"/><line style="stroke:#181818;stroke-width:0.5;" x1="372.5" x2="1070.4893" y1="47" y2="47"/><ellipse cx="382.5" cy="60.6484" fill="#84BE84" rx="3" ry="3" style="stroke:#038048;stroke-width:1;"/><text fill="#000000" font-family="sans-serif" font-size="14" lengthAdjust="spacing" textLength="106.9961" x="391.5" y="63.9951">AwtRenderer():</text><ellipse cx="382.5" cy="76.9453" fill="#84BE84" rx="3" ry="3" style="stroke:#038048;stroke-width:1;"/><text fill="#000000" font-family="sans-serif" font-size="14" lengthAdjust="spacing" textLength="246.4492" x="391.5" y="80.292">mouseReleased(MouseEvent): void</text><ellipse cx="382.5" cy="93.2422" fill="#84BE84" rx="3" ry="3" style="stroke:#038048;stroke-width:1;"/><text fill="#000000" font-family="sans-serif" font-size="14" lengthAdjust="spacing" textLength="237.3096" x="391.5" y="96.5889">mouseEntered(MouseEvent): void</text><ellipse cx="382.5" cy="109.5391" fill="#84BE84" rx="3" ry="3" style="stroke:#038048;stroke-width:1;"/><text fill="#000000" font-family="sans-serif" font-size="14" lengthAdjust="spacing" textLength="325.9512" x="391.5" y="112.8857">drawRect(int, int, int, int, boolean, Color): void</text><ellipse cx="382.5" cy="125.8359" fill="#84BE84" rx="3" ry="3" style="stroke:#038048;stroke-width:1;"/><text fill="#000000" font-family="sans-serif" font-size="14" lengthAdjust="spacing" textLength="237.1318" x="391.5" y="129.1826">mousePressed(MouseEvent): void</text><ellipse cx="382.5" cy="142.1328" fill="#84BE84" rx="3" ry="3" style="stroke:#038048;stroke-width:1;"/><text fill="#000000" font-family="sans-serif" font-size="14" lengthAdjust="spacing" textLength="310.1533" x="391.5" y="145.4795">drawImageRect(int, int, int, int, String): void</text><ellipse cx="382.5" cy="158.4297" fill="#84BE84" rx="3" ry="3" style="stroke:#038048;stroke-width:1;"/><text fill="#000000" font-family="sans-serif" font-size="14" lengthAdjust="spacing" textLength="99.0459" x="391.5" y="161.7764">update(): void</text><ellipse cx="382.5" cy="174.7266" fill="#84BE84" rx="3" ry="3" style="stroke:#038048;stroke-width:1;"/><text fill="#000000" font-family="sans-serif" font-size="14" lengthAdjust="spacing" textLength="226.2422" x="391.5" y="178.0732">mouseExited(MouseEvent): void</text><ellipse cx="382.5" cy="191.0234" fill="#84BE84" rx="3" ry="3" style="stroke:#038048;stroke-width:1;"/><text fill="#000000" font-family="sans-serif" font-size="14" lengthAdjust="spacing" textLength="673.9893" x="391.5" y="194.3701">initialize(int, int, BiFunction&lt;Position, Integer, Void&gt;, BiFunction&lt;Position, Integer, Void&gt;): void</text><ellipse cx="382.5" cy="207.3203" fill="#84BE84" rx="3" ry="3" style="stroke:#038048;stroke-width:1;"/><text fill="#000000" font-family="sans-serif" font-size="14" lengthAdjust="spacing" textLength="233.0918" x="391.5" y="210.667">mouseClicked(MouseEvent): void</text><ellipse cx="382.5" cy="223.6172" fill="#84BE84" rx="3" ry="3" style="stroke:#038048;stroke-width:1;"/><text fill="#000000" font-family="sans-serif" font-size="14" lengthAdjust="spacing" textLength="147.2598" x="391.5" y="226.9639">paint(Graphics): void</text><ellipse cx="382.5" cy="239.9141" fill="#84BE84" rx="3" ry="3" style="stroke:#038048;stroke-width:1;"/><text fill="#000000" font-family="sans-serif" font-size="14" lengthAdjust="spacing" textLength="242.0195" x="391.5" y="243.2607">drawCircle(int, int, int, Color): void</text><ellipse cx="382.5" cy="256.2109" fill="#84BE84" rx="3" ry="3" style="stroke:#038048;stroke-width:1;"/><text fill="#000000" font-family="sans-serif" font-size="14" lengthAdjust="spacing" textLength="250.209" x="391.5" y="259.5576">actionPerformed(ActionEvent): void</text></g><!--class Circle--><g id="elem_Circle"><rect codeLine="19" fill="#F1F1F1" height="80.5938" id="Circle" rx="2.5" ry="2.5" style="stroke:#181818;stroke-width:0.5;" width="199.2705" x="1107" y="96.5"/><ellipse cx="1182.5747" cy="112.5" fill="#ADD1B2" rx="11" ry="11" style="stroke:#181818;stroke-width:1;"/><path d="M1185.5435,118.1406 Q1184.9653,118.4375 1184.3247,118.5781 Q1183.6841,118.7344 1182.981,118.7344 Q1180.481,118.7344 1179.1528,117.0938 Q1177.8403,115.4375 1177.8403,112.3125 Q1177.8403,109.1875 1179.1528,107.5313 Q1180.481,105.875 1182.981,105.875 Q1183.6841,105.875 1184.3247,106.0313 Q1184.981,106.1875 1185.5435,106.4844 L1185.5435,109.2031 Q1184.9185,108.625 1184.3247,108.3594 Q1183.731,108.0781 1183.106,108.0781 Q1181.7622,108.0781 1181.0747,109.1563 Q1180.3872,110.2188 1180.3872,112.3125 Q1180.3872,114.4063 1181.0747,115.4844 Q1181.7622,116.5469 1183.106,116.5469 Q1183.731,116.5469 1184.3247,116.2813 Q1184.9185,116 1185.5435,115.4219 L1185.5435,118.1406 Z " fill="#000000"/><text fill="#000000" font-family="sans-serif" font-size="14" lengthAdjust="spacing" textLength="39.6211" x="1203.0747" y="117.3467">Circle</text><line style="stroke:#181818;stroke-width:0.5;" x1="1108" x2="1305.2705" y1="128.5" y2="128.5"/><line style="stroke:#181818;stroke-width:0.5;" x1="1108" x2="1305.2705" y1="136.5" y2="136.5"/><ellipse cx="1118" cy="150.1484" fill="#84BE84" rx="3" ry="3" style="stroke:#038048;stroke-width:1;"/><text fill="#000000" font-family="sans-serif" font-size="14" lengthAdjust="spacing" textLength="173.2705" x="1127" y="153.4951">Circle(int, int, int, Color):</text><ellipse cx="1118" cy="166.4453" fill="#84BE84" rx="3" ry="3" style="stroke:#038048;stroke-width:1;"/><text fill="#000000" font-family="sans-serif" font-size="14" lengthAdjust="spacing" textLength="146.2139" x="1127" y="169.792">draw(Graphics): void</text></g><!--class ImageRectangle--><g id="elem_ImageRectangle"><rect codeLine="23" fill="#F1F1F1" height="80.5938" id="ImageRectangle" rx="2.5" ry="2.5" style="stroke:#181818;stroke-width:0.5;" width="306.2461" x="1341.5" y="96.5"/><ellipse cx="1433.2656" cy="112.5" fill="#ADD1B2" rx="11" ry="11" style="stroke:#181818;stroke-width:1;"/><path d="M1436.2344,118.1406 Q1435.6563,118.4375 1435.0156,118.5781 Q1434.375,118.7344 1433.6719,118.7344 Q1431.1719,118.7344 1429.8438,117.0938 Q1428.5313,115.4375 1428.5313,112.3125 Q1428.5313,109.1875 1429.8438,107.5313 Q1431.1719,105.875 1433.6719,105.875 Q1434.375,105.875 1435.0156,106.0313 Q1435.6719,106.1875 1436.2344,106.4844 L1436.2344,109.2031 Q1435.6094,108.625 1435.0156,108.3594 Q1434.4219,108.0781 1433.7969,108.0781 Q1432.4531,108.0781 1431.7656,109.1563 Q1431.0781,110.2188 1431.0781,112.3125 Q1431.0781,114.4063 1431.7656,115.4844 Q1432.4531,116.5469 1433.7969,116.5469 Q1434.4219,116.5469 1435.0156,116.2813 Q1435.6094,116 1436.2344,115.4219 L1436.2344,118.1406 Z " fill="#000000"/><text fill="#000000" font-family="sans-serif" font-size="14" lengthAdjust="spacing" textLength="114.2148" x="1453.7656" y="117.3467">ImageRectangle</text><line style="stroke:#181818;stroke-width:0.5;" x1="1342.5" x2="1646.7461" y1="128.5" y2="128.5"/><line style="stroke:#181818;stroke-width:0.5;" x1="1342.5" x2="1646.7461" y1="136.5" y2="136.5"/><ellipse cx="1352.5" cy="150.1484" fill="#84BE84" rx="3" ry="3" style="stroke:#038048;stroke-width:1;"/><text fill="#000000" font-family="sans-serif" font-size="14" lengthAdjust="spacing" textLength="280.2461" x="1361.5" y="153.4951">ImageRectangle(int, int, int, int, String):</text><ellipse cx="1352.5" cy="166.4453" fill="#84BE84" rx="3" ry="3" style="stroke:#038048;stroke-width:1;"/><text fill="#000000" font-family="sans-serif" font-size="14" lengthAdjust="spacing" textLength="146.2139" x="1361.5" y="169.792">draw(Graphics): void</text></g><!--class Rectangle--><g id="elem_Rectangle"><rect codeLine="27" fill="#F1F1F1" height="96.8906" id="Rectangle" rx="2.5" ry="2.5" style="stroke:#181818;stroke-width:0.5;" width="322.0439" x="1682.5" y="88.5"/><ellipse cx="1804.0874" cy="104.5" fill="#ADD1B2" rx="11" ry="11" style="stroke:#181818;stroke-width:1;"/><path d="M1807.0562,110.1406 Q1806.478,110.4375 1805.8374,110.5781 Q1805.1968,110.7344 1804.4937,110.7344 Q1801.9937,110.7344 1800.6655,109.0938 Q1799.353,107.4375 1799.353,104.3125 Q1799.353,101.1875 1800.6655,99.5313 Q1801.9937,97.875 1804.4937,97.875 Q1805.1968,97.875 1805.8374,98.0313 Q1806.4937,98.1875 1807.0562,98.4844 L1807.0562,101.2031 Q1806.4312,100.625 1805.8374,100.3594 Q1805.2437,100.0781 1804.6187,100.0781 Q1803.2749,100.0781 1802.5874,101.1563 Q1801.8999,102.2188 1801.8999,104.3125 Q1801.8999,106.4063 1802.5874,107.4844 Q1803.2749,108.5469 1804.6187,108.5469 Q1805.2437,108.5469 1805.8374,108.2813 Q1806.4312,108 1807.0562,107.4219 L1807.0562,110.1406 Z " fill="#000000"/><text fill="#000000" font-family="sans-serif" font-size="14" lengthAdjust="spacing" textLength="70.3691" x="1824.5874" y="109.3467">Rectangle</text><line style="stroke:#181818;stroke-width:0.5;" x1="1683.5" x2="2003.5439" y1="120.5" y2="120.5"/><line style="stroke:#181818;stroke-width:0.5;" x1="1683.5" x2="2003.5439" y1="128.5" y2="128.5"/><ellipse cx="1693.5" cy="142.1484" fill="#84BE84" rx="3" ry="3" style="stroke:#038048;stroke-width:1;"/><text fill="#000000" font-family="sans-serif" font-size="14" lengthAdjust="spacing" textLength="296.0439" x="1702.5" y="145.4951">Rectangle(int, int, int, int, boolean, Color):</text><ellipse cx="1693.5" cy="158.4453" fill="#84BE84" rx="3" ry="3" style="stroke:#038048;stroke-width:1;"/><text fill="#000000" font-family="sans-serif" font-size="14" lengthAdjust="spacing" textLength="146.2139" x="1702.5" y="161.792">draw(Graphics): void</text><ellipse cx="1693.5" cy="174.7422" fill="#84BE84" rx="3" ry="3" style="stroke:#038048;stroke-width:1;"/><text fill="#000000" font-family="sans-serif" font-size="14" lengthAdjust="spacing" textLength="117.708" x="1702.5" y="178.0889">toString(): String</text></g><!--class Render--><g id="elem_Render"><rect codeLine="32" fill="#F1F1F1" height="137.75" id="Render" rx="2.5" ry="2.5" style="stroke:#181818;stroke-width:0.5;" width="699.9893" x="96.5" y="327"/><ellipse cx="410.0786" cy="347.1328" fill="#B4A7E5" rx="11" ry="11" style="stroke:#181818;stroke-width:1;"/><path d="M406.0005,342.8984 L406.0005,340.7422 L413.3911,340.7422 L413.3911,342.8984 L410.9224,342.8984 L410.9224,350.9766 L413.3911,350.9766 L413.3911,353.1328 L406.0005,353.1328 L406.0005,350.9766 L408.4692,350.9766 L408.4692,342.8984 L406.0005,342.8984 Z " fill="#000000"/><text fill="#000000" font-family="sans-serif" font-size="12" font-style="italic" lengthAdjust="spacing" textLength="68.332" x="428.5786" y="343.1387">&#171;interface&#187;</text><text fill="#000000" font-family="sans-serif" font-size="14" font-style="italic" lengthAdjust="spacing" textLength="50.4697" x="437.5098" y="358.9639">Render</text><line style="stroke:#181818;stroke-width:0.5;" x1="97.5" x2="795.4893" y1="367.2656" y2="367.2656"/><line style="stroke:#181818;stroke-width:0.5;" x1="97.5" x2="795.4893" y1="375.2656" y2="375.2656"/><ellipse cx="107.5" cy="388.9141" fill="#84BE84" rx="3" ry="3" style="stroke:#038048;stroke-width:1;"/><text fill="#000000" font-family="sans-serif" font-size="14" lengthAdjust="spacing" textLength="242.0195" x="116.5" y="392.2607">drawCircle(int, int, int, Color): void</text><ellipse cx="107.5" cy="405.2109" fill="#84BE84" rx="3" ry="3" style="stroke:#038048;stroke-width:1;"/><text fill="#000000" font-family="sans-serif" font-size="14" lengthAdjust="spacing" textLength="310.1533" x="116.5" y="408.5576">drawImageRect(int, int, int, int, String): void</text><ellipse cx="107.5" cy="421.5078" fill="#84BE84" rx="3" ry="3" style="stroke:#038048;stroke-width:1;"/><text fill="#000000" font-family="sans-serif" font-size="14" lengthAdjust="spacing" textLength="325.9512" x="116.5" y="424.8545">drawRect(int, int, int, int, boolean, Color): void</text><ellipse cx="107.5" cy="437.8047" fill="#84BE84" rx="3" ry="3" style="stroke:#038048;stroke-width:1;"/><text fill="#000000" font-family="sans-serif" font-size="14" lengthAdjust="spacing" textLength="99.0459" x="116.5" y="441.1514">update(): void</text><ellipse cx="107.5" cy="454.1016" fill="#84BE84" rx="3" ry="3" style="stroke:#038048;stroke-width:1;"/><text fill="#000000" font-family="sans-serif" font-size="14" lengthAdjust="spacing" textLength="673.9893" x="116.5" y="457.4482">initialize(int, int, BiFunction&lt;Position, Integer, Void&gt;, BiFunction&lt;Position, Integer, Void&gt;): void</text></g><!--class Shape--><g id="elem_Shape"><rect codeLine="39" fill="#F1F1F1" height="72.5625" id="Shape" rx="2.5" ry="2.5" style="stroke:#181818;stroke-width:0.5;" width="172.2139" x="1264.5" y="359.5"/><ellipse cx="1314.1909" cy="379.6328" fill="#B4A7E5" rx="11" ry="11" style="stroke:#181818;stroke-width:1;"/><path d="M1310.1128,375.3984 L1310.1128,373.2422 L1317.5034,373.2422 L1317.5034,375.3984 L1315.0347,375.3984 L1315.0347,383.4766 L1317.5034,383.4766 L1317.5034,385.6328 L1310.1128,385.6328 L1310.1128,383.4766 L1312.5815,383.4766 L1312.5815,375.3984 L1310.1128,375.3984 Z " fill="#000000"/><text fill="#000000" font-family="sans-serif" font-size="12" font-style="italic" lengthAdjust="spacing" textLength="68.332" x="1332.6909" y="375.6387">&#171;interface&#187;</text><text fill="#000000" font-family="sans-serif" font-size="14" font-style="italic" lengthAdjust="spacing" textLength="43.8389" x="1344.9375" y="391.4639">Shape</text><line style="stroke:#181818;stroke-width:0.5;" x1="1265.5" x2="1435.7139" y1="399.7656" y2="399.7656"/><line style="stroke:#181818;stroke-width:0.5;" x1="1265.5" x2="1435.7139" y1="407.7656" y2="407.7656"/><ellipse cx="1275.5" cy="421.4141" fill="#84BE84" rx="3" ry="3" style="stroke:#038048;stroke-width:1;"/><text fill="#000000" font-family="sans-serif" font-size="14" lengthAdjust="spacing" textLength="146.2139" x="1284.5" y="424.7607">draw(Graphics): void</text></g><!--class View--><g id="elem_View"><rect codeLine="42" fill="#F1F1F1" height="145.7813" id="View" rx="2.5" ry="2.5" style="stroke:#181818;stroke-width:0.5;" width="329.1602" x="7" y="64"/><ellipse cx="150.5649" cy="80" fill="#ADD1B2" rx="11" ry="11" style="stroke:#181818;stroke-width:1;"/><path d="M153.5337,85.6406 Q152.9556,85.9375 152.3149,86.0781 Q151.6743,86.2344 150.9712,86.2344 Q148.4712,86.2344 147.1431,84.5938 Q145.8306,82.9375 145.8306,79.8125 Q145.8306,76.6875 147.1431,75.0313 Q148.4712,73.375 150.9712,73.375 Q151.6743,73.375 152.3149,73.5313 Q152.9712,73.6875 153.5337,73.9844 L153.5337,76.7031 Q152.9087,76.125 152.3149,75.8594 Q151.7212,75.5781 151.0962,75.5781 Q149.7524,75.5781 149.0649,76.6563 Q148.3774,77.7188 148.3774,79.8125 Q148.3774,81.9063 149.0649,82.9844 Q149.7524,84.0469 151.0962,84.0469 Q151.7212,84.0469 152.3149,83.7813 Q152.9087,83.5 153.5337,82.9219 L153.5337,85.6406 Z " fill="#000000"/><text fill="#000000" font-family="sans-serif" font-size="14" lengthAdjust="spacing" textLength="33.5303" x="171.0649" y="84.8467">View</text><line style="stroke:#181818;stroke-width:0.5;" x1="8" x2="335.1602" y1="96" y2="96"/><line style="stroke:#181818;stroke-width:0.5;" x1="8" x2="335.1602" y1="104" y2="104"/><ellipse cx="18" cy="117.6484" fill="#84BE84" rx="3" ry="3" style="stroke:#038048;stroke-width:1;"/><text fill="#000000" font-family="sans-serif" font-size="14" lengthAdjust="spacing" textLength="49.1709" x="27" y="120.9951">View():</text><ellipse cx="18" cy="133.9453" fill="#84BE84" rx="3" ry="3" style="stroke:#038048;stroke-width:1;"/><text fill="#000000" font-family="sans-serif" font-size="14" lengthAdjust="spacing" textLength="303.1602" x="27" y="137.292">mouseDragged(Position, Position, int): void</text><ellipse cx="18" cy="150.2422" fill="#84BE84" rx="3" ry="3" style="stroke:#038048;stroke-width:1;"/><text fill="#000000" font-family="sans-serif" font-size="14" lengthAdjust="spacing" textLength="244.3711" x="27" y="153.5889">mouseReleased(Position, int): Void</text><ellipse cx="18" cy="166.5391" fill="#84BE84" rx="3" ry="3" style="stroke:#038048;stroke-width:1;"/><text fill="#000000" font-family="sans-serif" font-size="14" lengthAdjust="spacing" textLength="132.5762" x="27" y="169.8857">updateView(): void</text><ellipse cx="18" cy="182.8359" fill="#84BE84" rx="3" ry="3" style="stroke:#038048;stroke-width:1;"/><text fill="#000000" font-family="sans-serif" font-size="14" lengthAdjust="spacing" textLength="235.0537" x="27" y="186.1826">mousePressed(Position, int): Void</text><ellipse cx="18" cy="199.1328" fill="#84BE84" rx="3" ry="3" style="stroke:#038048;stroke-width:1;"/><text fill="#000000" font-family="sans-serif" font-size="14" lengthAdjust="spacing" textLength="183.0527" x="27" y="202.4795">clickOn(Position, int): void</text></g><!--link AwtRenderer to Render--><g id="link_AwtRenderer_Render"><path codeLine="51" d="M584,267.26 C584,287.79 584,290.3 584,308.72 " fill="transparent" id="AwtRenderer-to-Render" style="stroke:#008200;stroke-width:1;stroke-dasharray:7.0,7.0;"/><polygon fill="transparent" points="584,326.72,590,308.72,578,308.72,584,326.72" style="stroke:#008200;stroke-width:1;"/></g><!--link AwtRenderer to Shape--><g id="link_AwtRenderer_Shape"><path codeLine="52" d="M1083.78,227 C1195.32,227 1278.33,227 1278.33,227 C1278.33,227 1278.33,303.63 1278.33,353.33 " fill="transparent" id="AwtRenderer-Shape" style="stroke:#595959;stroke-width:1;"/><polygon fill="#595959" points="1071.78,227,1077.78,231,1083.78,227,1077.78,223,1071.78,227" style="stroke:#595959;stroke-width:1;"/><polygon fill="#595959" points="1278.33,359.33,1282.33,350.33,1278.33,354.33,1274.33,350.33,1278.33,359.33" style="stroke:#595959;stroke-width:1;"/><text fill="#000000" font-family="sans-serif" font-size="13" lengthAdjust="spacing" textLength="8.271" x="1078.9792" y="225.7455">1</text><text fill="#000000" font-family="sans-serif" font-size="13" lengthAdjust="spacing" textLength="46.0015" x="1217.1454" y="333.218">shapes</text><text fill="#000000" font-family="sans-serif" font-size="13" lengthAdjust="spacing" textLength="6.5" x="1236.8961" y="348.3508">*</text></g><!--link Circle to Shape--><g id="link_Circle_Shape"><path codeLine="53" d="M1292.17,177.75 C1292.17,227.61 1292.17,293.29 1292.17,341.25 " fill="transparent" id="Circle-to-Shape" style="stroke:#008200;stroke-width:1;stroke-dasharray:7.0,7.0;"/><polygon fill="transparent" points="1292.17,359.25,1298.17,341.25,1286.17,341.25,1292.17,359.25" style="stroke:#008200;stroke-width:1;"/></g><!--link ImageRectangle to Shape--><g id="link_ImageRectangle_Shape"><path codeLine="54" d="M1373.17,177.75 C1373.17,227.61 1373.17,293.29 1373.17,341.25 " fill="transparent" id="ImageRectangle-to-Shape" style="stroke:#008200;stroke-width:1;stroke-dasharray:7.0,7.0;"/><polygon fill="transparent" points="1373.17,359.25,1379.17,341.25,1367.17,341.25,1373.17,359.25" style="stroke:#008200;stroke-width:1;"/></g><!--link Rectangle to Shape--><g id="link_Rectangle_Shape"><path codeLine="55" d="M1682.34,182 C1557.2,182 1404.83,182 1404.83,182 C1404.83,182 1404.83,280.03 1404.83,341.21 " fill="transparent" id="Rectangle-to-Shape" style="stroke:#008200;stroke-width:1;stroke-dasharray:7.0,7.0;"/><polygon fill="transparent" points="1404.83,359.21,1410.83,341.21,1398.83,341.21,1404.83,359.21" style="stroke:#008200;stroke-width:1;"/></g><!--link View to Render--><g id="link_View_Render"><path codeLine="56" d="M216.25,222.18 C216.25,258.68 216.25,284.59 216.25,320.56 " fill="transparent" id="View-Render" style="stroke:#595959;stroke-width:1;"/><polygon fill="#595959" points="216.25,210.18,212.25,216.18,216.25,222.18,220.25,216.18,216.25,210.18" style="stroke:#595959;stroke-width:1;"/><polygon fill="#595959" points="216.25,326.56,220.25,317.56,216.25,321.56,212.25,317.56,216.25,326.56" style="stroke:#595959;stroke-width:1;"/><text fill="#000000" font-family="sans-serif" font-size="13" lengthAdjust="spacing" textLength="8.271" x="212.1393" y="229.9535">1</text><text fill="#000000" font-family="sans-serif" font-size="13" lengthAdjust="spacing" textLength="56.5195" x="136.467" y="300.8663">renderer</text><text fill="#000000" font-family="sans-serif" font-size="13" lengthAdjust="spacing" textLength="8.271" x="160.5913" y="315.9992">1</text></g><!--SRC=[lLHHJzim47xFhpXrBm5IgKEQD51L2GfCFA1LHUeBCCaaHteYiIFRfMmJ_nqxIPCqYRkE1rofSfoxx_lo-Uwqo40BU1HQYnGYaXXg4jnJpyGp9baA2N7KlpC48VLIU5wOCANWRAtdo2EKAE6l1t3KFF4FJY4_IyLAuHmJP0eZ_yO-NRuWr-RzYw2eZhdasYIwGYB9rdCZp2Uk0sZzFGfXy7a0Kv48sK6UILHg9_9roc9qmjzgIJnkvgooY6dqkz_mIjf9H9mqiOJ-O8FbdAvMFFTxF1EAx2Q0QsD5Z3A0XScTx1NKaJ9DA7nsQicOOVT_I9OjALHjEwOammJRNdJCPRca6Sed8LD3TPO_Rt6zbRLI89PbiXk-Kj6Hjm6hRelnk0BTFjnzZ_-cQAFl1kxKdvl0lj2YK6BhfzWPNhBb_yH2XAA5O3o6-cmoAONyn_LyfB0_s6Oz_V0frTwqxNR9p8Hok-QywmNXkeops-t9TI5P79lQhfNKE-gPOjMaQuSjjhtQCFLFAcToQBlw9_TxHRnvNdCcspMy-p8QVJyUZOA8gIL63yDVi2cmpMed3RuEuD0aVZknlo1BpAnu64vWeAp3wfuV3agpQuYolwlLozjEQlNnVacD-FsPyYkkb_CBPMd3FJSHXIVl]--></g></svg>